PathFileType	4	(X/Y/Z)	6_coords_data.trc
DataRate	CameraRate	NumFrames	NumMarkers	Units	OrigDataRate	OrigDataStartFrame	OrigNumFrames
30.0	30.0	5	21	m	30.0	41	71
Frame#	Time	THUMB_TIP	THUMB_IP	THUMB_MCP	THUMB_CMC	INDEX_TIP	INDEX_DIP	INDEX_PIP	INDEX_MCP	MIDDLE_TIP	MIDDLE_DIP	MIDDLE_PIP	MIDDLE_MCP	RING_TIP	RING_DIP	RING_PIP	RING_MCP	PINKY_TIP	PINKY_DIP	PINKY_PIP	PINKY_MCP	WRIST
X1	Y1	Z1	X2	Y2	Z2	X3	Y3	Z3	X4	Y4	Z4	X5	Y5	Z5	X6	Y6	Z6	X7	Y7	Z7	X8	Y8	Z8	X9	Y9	Z9	X10	Y10	Z10	X11	Y11	Z11	X12	Y12	Z12	X13	Y13	Z13	X14	Y14	Z14	X15	Y15	Z15	X16	Y16	Z16	X17	Y17	Z17	X18	Y18	Z18	X19	Y19	Z19	X20	Y20	Z20	X21	Y21	Z21
40	1.3333333333333333	0.021266899108886718	-0.061126598358154295	0.9703499755859375	0.04293759918212891	-0.057716400146484374	0.9800029907226563	0.047782001495361326	-0.05227109909057617	1.009530029296875	0.022635499954223634	-0.04119260025024414	1.0289200439453126	0.06548619842529296	-0.1488459930419922	0.9561069946289062	0.05939049911499023	-0.13518299865722655	0.973989013671875	0.05200149917602539	-0.12171600341796875	0.9914660034179688	0.035885700225830076	-0.10220800018310547	1.0234400024414063	0.02862929916381836	-0.04768280029296875	0.9956389770507813	0.029589799880981444	-0.06488670349121094	0.987177001953125	0.028080799102783202	-0.09359529876708984	0.9844990234375	0.009535189628601073	-0.11104399871826172	1.0231500244140626	0.02015589904785156	-0.043222900390625	0.988416015625	0.015993900299072265	-0.06126850128173828	0.9812119750976562	0.007229080200195311	-0.08742630004882812	0.9800750122070313	-0.01198419952392578	-0.10234400177001954	1.0153099975585937	-0.030044599533081053	-0.12320999908447265	0.94789697265625	-0.028047000885009766	-0.10987400054931641	0.9641630249023437	-0.026392900466918945	-0.099493896484375	0.9799180297851563	-0.02383340072631836	-0.08520059967041016	1.0056199951171876	-0.00886476993560791	-0.04189630126953125	1.055239990234375
41	1.3666666666666667	0.02179680061340332	-0.06019139862060547	0.9698909912109375	0.04353609848022461	-0.0570447998046875	0.9801619873046875	0.04787260055541992	-0.05188000106811524	1.0093800048828125	0.022766700744628908	-0.04069150161743164	1.028800048828125	0.0649751968383789	-0.14797900390625	0.9552529907226562	0.058905998229980466	-0.1345019989013672	0.9732230224609375	0.05162649917602539	-0.12115399932861329	0.990968994140625	0.035788700103759764	-0.10187300109863281	1.0226599731445312	0.02890049934387207	-0.04682490158081055	0.9953200073242188	0.02977720069885254	-0.06423410034179687	0.9867969970703125	0.02817180061340332	-0.09270169830322265	0.983844970703125	0.009179570198059083	-0.11046199798583985	1.0223800048828124	0.020746200561523438	-0.042290199279785154	0.9879210205078125	0.01634429931640625	-0.060277400970458986	0.9807899780273438	0.007282609939575195	-0.08634339904785156	0.9793909912109375	-0.012288200378417968	-0.10145899963378906	1.0146500244140626	-0.029949100494384765	-0.12128600311279297	0.9467139892578125	-0.02800239944458008	-0.10816100311279297	0.9632100219726563	-0.026443599700927734	-0.09797360229492187	0.9791380004882813	-0.024113100051879884	-0.08407460021972656	1.0051500244140625	-0.008703929901123047	-0.041228599548339843	1.05502001953125
42	1.4	0.022879800796508788	-0.05966210174560547	0.9692269897460938	0.04437829971313476	-0.05721490097045898	0.9802160034179688	0.048356700897216796	-0.0524473991394043	1.0098099975585937	0.02298979949951172	-0.04081549835205078	1.028780029296875	0.06370029830932618	-0.14755299377441405	0.9540390014648438	0.05763140106201172	-0.13455499267578125	0.9723460083007812	0.05044359970092773	-0.12155599975585937	0.9904010009765625	0.03475400161743164	-0.10229299926757812	1.0222999877929688	0.029660200119018553	-0.046579498291015625	0.9941820068359375	0.030215099334716798	-0.06391790008544922	0.9865969848632813	0.027914199829101562	-0.0924989013671875	0.9833200073242188	0.00798169994354248	-0.11012000274658203	1.0213099975585938	0.022027500152587892	-0.04182049942016602	0.9875789794921875	0.017139699935913084	-0.0596432991027832	0.9801069946289063	0.007221879959106445	-0.08555079650878906	0.9786409912109375	-0.013146100044250488	-0.10055599975585937	1.013530029296875	-0.029978700637817383	-0.11853800201416016	0.9448250122070313	-0.028095699310302733	-0.10587200164794922	0.961655029296875	-0.02652599906921387	-0.09600250244140625	0.9777620239257813	-0.024334299087524415	-0.08272270202636718	1.0041099853515625	-0.008888689994812012	-0.04103630065917969	1.055
43	1.4333333333333333	0.025281400680541993	-0.059163700103759764	0.9679849853515625	0.046143798828125	-0.05849250030517578	0.9806630249023438	0.04894329833984375	-0.054528999328613284	1.0106599731445312	0.02338710021972656	-0.04179880142211914	1.02893994140625	0.0600182991027832	-0.14748300170898437	0.95139697265625	0.05415729904174805	-0.13535800170898438	0.9703060302734375	0.04731119918823242	-0.12296700286865235	0.988760009765625	0.032305801391601566	-0.10376799774169922	1.0208800048828126	0.03089189910888672	-0.04709980010986328	0.993510986328125	0.031012500762939453	-0.06461810302734375	0.9859569702148437	0.02683370018005371	-0.09297380065917969	0.9819630126953125	0.005082640171051025	-0.10995099639892578	1.0191199951171874	0.024807899475097657	-0.04156449890136719	0.9863790283203125	0.018701799392700197	-0.05905680084228516	0.9789559936523438	0.006993919849395752	-0.08433930206298829	0.9766229858398437	-0.015346799850463867	-0.09886519622802735	1.0110900268554688	-0.03023080062866211	-0.11249199676513671	0.9405499877929687	-0.028275299072265624	-0.10072799682617188	0.958156005859375	-0.02702120018005371	-0.09183170318603516	0.9749710083007812	-0.02558329963684082	-0.07984719848632812	1.00227001953125	-0.008882049560546876	-0.040798900604248046	1.054800048828125
44	1.4666666666666666	0.02953310012817383	-0.05982339859008789	0.9670919799804687	0.049082000732421874	-0.06072949981689453	0.9829979858398438	0.049657299041748044	-0.05738769912719727	1.012469970703125	0.023469600677490234	-0.04318190002441406	1.0296099853515626	0.05844729995727539	-0.1460679931640625	0.9494949951171875	0.05194680023193359	-0.13539599609375	0.96897900390625	0.04467670059204101	-0.12414600372314454	0.9881259765625	0.02947610092163086	-0.10530100250244141	1.02047998046875	0.033769100189208985	-0.049462799072265626	0.9946409912109375	0.032562801361083984	-0.06656559753417969	0.9852860107421875	0.02638479995727539	-0.0938375015258789	0.9808560180664062	0.002393249988555908	-0.10963300323486327	1.0166599731445312	0.028602800369262694	-0.042013698577880856	0.985302978515625	0.021098899841308593	-0.059102699279785155	0.9777639770507812	0.007815750122070312	-0.08302980041503906	0.9750369873046875	-0.017171600341796874	-0.09705030059814453	1.008030029296875	-0.028414400100708007	-0.10650499725341797	0.9359739990234375	-0.027060400009155272	-0.09598040008544922	0.9543079833984375	-0.026417900085449218	-0.0880291976928711	0.971823974609375	-0.025455699920654298	-0.0771699981689453	0.999510986328125	-0.00936758041381836	-0.040639999389648435	1.055
